<svg xmlns="http://www.w3.org/2000/svg" viewBox="0 0 320 220" fill="none" stroke="#111" stroke-width="2.2" stroke-linecap="round" stroke-linejoin="round">
  <!-- customer question bubble -->
  <path d="M30 40h120a12 12 0 0 1 12 12v42a12 12 0 0 1-12 12H72l-22 18v-18H30a12 12 0 0 1-12-12V52a12 12 0 0 1 12-12z"/>
  <path d="M40 62h86M40 80h60"/>
  <text x="128" y="86" font-family="Georgia, serif" font-size="26" fill="#111" stroke="none">?</text>
  <!-- arrow carrying it across -->
  <path d="M150 128c30 22 64 26 96 10" stroke-dasharray="5 7"/>
  <path d="M238 128l10 10-13 4"/>
  <!-- ticket card -->
  <path d="M196 150h96v52h-96z" fill="#fff"/>
  <rect x="204" y="158" width="38" height="12" rx="3" fill="#ffe066" stroke="none"/>
  <path d="M206 164h30M206 182h70M206 192h50"/>
  <!-- the person who picks it up -->
  <circle cx="262" cy="52" r="18"/>
  <path d="M226 118c4-26 18-40 36-40s32 14 36 40"/>
  <path d="M248 50h0M272 50h0" stroke-width="3.4"/>
  <path d="M254 60c5 4 11 4 16 0"/>
</svg>
